<svg xmlns="http://www.w3.org/2000/svg" viewBox="0 0 900 640" font-family="system-ui, -apple-system, sans-serif" font-size="13">
  <defs>
    <marker id="arrow" viewBox="0 0 10 7" refX="10" refY="3.5" markerWidth="10" markerHeight="7" orient="auto-start-auto">
      <polygon points="0 0, 10 3.5, 0 7" fill="#64748b"/>
    </marker>
    <marker id="arrow-green" viewBox="0 0 10 7" refX="10" refY="3.5" markerWidth="10" markerHeight="7" orient="auto-start-auto">
      <polygon points="0 0, 10 3.5, 0 7" fill="#16a34a"/>
    </marker>
    <linearGradient id="bg" x1="0%" y1="0%" x2="0%" y2="100%">
      <stop offset="0%" style="stop-color:#f8fafc"/>
      <stop offset="100%" style="stop-color:#f1f5f9"/>
    </linearGradient>
  </defs>

  <rect width="900" height="640" rx="12" fill="url(#bg)" stroke="#e2e8f0" stroke-width="1"/>

  <text x="450" y="30" text-anchor="middle" font-size="16" font-weight="bold" fill="#0f172a">Mantis — Stage 0-5 Vulnerability Discovery Pipeline</text>

  <rect x="305" y="48" width="290" height="48" rx="8" fill="#ffffff" stroke="#94a3b8" stroke-width="1.2"/>
  <text x="450" y="68" text-anchor="middle" font-weight="bold" fill="#0f172a">Target Repository</text>
  <text x="450" y="85" text-anchor="middle" fill="#475569" font-size="11">Open-source C/C++ project source tree</text>

  <line x1="450" y1="96" x2="450" y2="118" stroke="#64748b" stroke-width="1.5" marker-end="url(#arrow)"/>

  <rect x="220" y="122" width="460" height="78" rx="8" fill="#fefce8" stroke="#ca8a04" stroke-width="1.5"/>
  <text x="450" y="143" text-anchor="middle" font-weight="bold" fill="#854d0e" font-size="11">STAGE 0 — BUILD (one-time)</text>
  <text x="450" y="161" text-anchor="middle" font-weight="bold" fill="#1e3a5f">Builder container compiles ASAN binaries once</text>
  <text x="450" y="178" text-anchor="middle" fill="#475569" font-size="11">Clang + sanitizers, build-system auto-detection, binaries mounted read-only</text>
  <text x="450" y="193" text-anchor="middle" fill="#475569" font-size="11">Key files: `harness/cli.py`, `worker/entrypoint.sh`</text>

  <line x1="450" y1="200" x2="450" y2="222" stroke="#64748b" stroke-width="1.5" marker-end="url(#arrow)"/>

  <rect x="220" y="226" width="460" height="76" rx="8" fill="#eff6ff" stroke="#3b82f6" stroke-width="1.5"/>
  <text x="450" y="247" text-anchor="middle" font-weight="bold" fill="#1e40af" font-size="11">STAGE 1 — FILE RANKING</text>
  <text x="450" y="265" text-anchor="middle" font-weight="bold" fill="#1e3a5f">Static regex ranker by default, LLM ranker optional</text>
  <text x="450" y="282" text-anchor="middle" fill="#475569" font-size="11">Scores source files 1-5 by vulnerability likelihood and selects scan order</text>
  <text x="450" y="297" text-anchor="middle" fill="#475569" font-size="11">Key files: `harness/static_ranker.py`, `harness/ranker.py`</text>

  <line x1="450" y1="302" x2="450" y2="324" stroke="#64748b" stroke-width="1.5" marker-end="url(#arrow)"/>

  <rect x="80" y="328" width="220" height="82" rx="8" fill="#eff6ff" stroke="#3b82f6" stroke-width="1.5"/>
  <text x="190" y="349" text-anchor="middle" font-weight="bold" fill="#1e40af" font-size="11">STAGE 2 — JOB QUEUE</text>
  <text x="190" y="368" text-anchor="middle" font-weight="bold" fill="#1e3a5f">Redis priority queue</text>
  <text x="190" y="385" text-anchor="middle" fill="#475569" font-size="11">Sorted set ordered by vulnerability score</text>
  <text x="190" y="400" text-anchor="middle" fill="#475569" font-size="11">Highest-risk files dequeue first</text>

  <rect x="340" y="328" width="220" height="82" rx="8" fill="#eefdf6" stroke="#10b981" stroke-width="1.5"/>
  <text x="450" y="349" text-anchor="middle" font-weight="bold" fill="#047857" font-size="11">DISPATCHER / ORCHESTRATOR</text>
  <text x="450" y="368" text-anchor="middle" font-weight="bold" fill="#1e3a5f">Python asyncio control plane</text>
  <text x="450" y="385" text-anchor="middle" fill="#475569" font-size="11">Semaphore, spend-limit checks, timeout + SIGKILL</text>
  <text x="450" y="400" text-anchor="middle" fill="#475569" font-size="11">Key files: `harness/queue.py`, `harness/dispatcher.py`</text>

  <rect x="600" y="328" width="220" height="82" rx="8" fill="#f8fafc" stroke="#cbd5e1" stroke-width="1.2" stroke-dasharray="4,3"/>
  <text x="710" y="349" text-anchor="middle" font-weight="bold" fill="#64748b" font-size="11">LLM PROVIDERS</text>
  <text x="710" y="368" text-anchor="middle" fill="#475569" font-size="11">via litellm</text>
  <text x="710" y="385" text-anchor="middle" fill="#475569" font-size="10">Anthropic / OpenAI / Google</text>
  <text x="710" y="400" text-anchor="middle" fill="#475569" font-size="10">Ollama / other compatible backends</text>

  <line x1="300" y1="369" x2="340" y2="369" stroke="#64748b" stroke-width="1.5" marker-end="url(#arrow)"/>
  <line x1="450" y1="410" x2="450" y2="432" stroke="#64748b" stroke-width="1.5" marker-end="url(#arrow)"/>

  <rect x="85" y="438" width="730" height="118" rx="8" fill="#f0fdf4" stroke="#16a34a" stroke-width="1.5"/>
  <text x="450" y="458" text-anchor="middle" font-weight="bold" fill="#166534" font-size="11">STAGE 3 — PARALLEL WORKER CONTAINERS</text>

  <rect x="110" y="474" width="160" height="64" rx="6" fill="#ffffff" stroke="#86efac" stroke-width="1"/>
  <text x="190" y="493" text-anchor="middle" font-weight="bold" fill="#1e3a5f" font-size="11">Worker 1</text>
  <text x="190" y="509" text-anchor="middle" fill="#475569" font-size="10">litellm ReAct agent</text>
  <text x="190" y="523" text-anchor="middle" fill="#475569" font-size="10">`bash`, `read_file` tools</text>

  <rect x="290" y="474" width="160" height="64" rx="6" fill="#ffffff" stroke="#86efac" stroke-width="1"/>
  <text x="370" y="493" text-anchor="middle" font-weight="bold" fill="#1e3a5f" font-size="11">Worker 2</text>
  <text x="370" y="509" text-anchor="middle" fill="#475569" font-size="10">Read code → hypothesize</text>
  <text x="370" y="523" text-anchor="middle" fill="#475569" font-size="10">Craft input → run ASAN binary</text>

  <rect x="470" y="474" width="160" height="64" rx="6" fill="#ffffff" stroke="#86efac" stroke-width="1"/>
  <text x="550" y="493" text-anchor="middle" font-weight="bold" fill="#1e3a5f" font-size="11">Worker 3</text>
  <text x="550" y="509" text-anchor="middle" fill="#475569" font-size="10">JSON verdict on stdout</text>
  <text x="550" y="523" text-anchor="middle" fill="#475569" font-size="10">ASAN traces on stderr</text>

  <rect x="650" y="474" width="140" height="64" rx="6" fill="#ffffff" stroke="#86efac" stroke-width="1" stroke-dasharray="4,3"/>
  <text x="720" y="505" text-anchor="middle" fill="#94a3b8" font-size="12">Worker N...</text>

  <line x1="710" y1="410" x2="710" y2="438" stroke="#64748b" stroke-width="1.2" marker-end="url(#arrow)"/>
  <line x1="450" y1="556" x2="450" y2="576" stroke="#64748b" stroke-width="1.5" marker-end="url(#arrow)"/>

  <rect x="120" y="580" width="210" height="52" rx="8" fill="#eff6ff" stroke="#3b82f6" stroke-width="1.5"/>
  <text x="225" y="600" text-anchor="middle" font-weight="bold" fill="#1e40af" font-size="11">STAGE 4 — ASAN PARSER + TRIAGE</text>
  <text x="225" y="617" text-anchor="middle" fill="#475569" font-size="11">Extract vuln type, location, severity tier, CVSS estimate</text>

  <line x1="330" y1="606" x2="366" y2="606" stroke="#64748b" stroke-width="1.5" marker-end="url(#arrow)"/>

  <rect x="370" y="580" width="210" height="52" rx="8" fill="#fdf2f8" stroke="#db2777" stroke-width="1.5"/>
  <text x="475" y="600" text-anchor="middle" font-weight="bold" fill="#9d174d" font-size="11">STAGE 5 — VALIDATION AGENT</text>
  <text x="475" y="617" text-anchor="middle" fill="#475569" font-size="11">Separate provider-agnostic LLM call: VALIDATE / REJECT / NEEDS TRIAGE</text>

  <line x1="580" y1="606" x2="616" y2="606" stroke="#16a34a" stroke-width="1.5" marker-end="url(#arrow-green)"/>

  <rect x="620" y="568" width="118" height="30" rx="6" fill="#faf5ff" stroke="#9333ea" stroke-width="1"/>
  <text x="679" y="587" text-anchor="middle" font-weight="bold" fill="#7e22ce" font-size="11">Markdown reports</text>

  <rect x="750" y="568" width="118" height="30" rx="6" fill="#faf5ff" stroke="#9333ea" stroke-width="1"/>
  <text x="809" y="587" text-anchor="middle" font-weight="bold" fill="#7e22ce" font-size="11">Encrypted Postgres</text>

  <rect x="620" y="604" width="118" height="30" rx="6" fill="#faf5ff" stroke="#9333ea" stroke-width="1"/>
  <text x="679" y="623" text-anchor="middle" font-weight="bold" fill="#7e22ce" font-size="11">SHA-3 audit log</text>

  <rect x="750" y="604" width="118" height="30" rx="6" fill="#fff7ed" stroke="#ea580c" stroke-width="1"/>
  <text x="809" y="623" text-anchor="middle" font-weight="bold" fill="#c2410c" font-size="11">Human review gate</text>
</svg>
